<?xml version="1.0" encoding="UTF-8" standalone="no"?>
<!-- Created with Inkscape (http://www.inkscape.org/) -->

<svg
   xmlns:dc="http://purl.org/dc/elements/1.1/"
   xmlns:cc="http://creativecommons.org/ns#"
   xmlns:rdf="http://www.w3.org/1999/02/22-rdf-syntax-ns#"
   xmlns:svg="http://www.w3.org/2000/svg"
   xmlns="http://www.w3.org/2000/svg"
   xmlns:xlink="http://www.w3.org/1999/xlink"
   xmlns:sodipodi="http://sodipodi.sourceforge.net/DTD/sodipodi-0.dtd"
   xmlns:inkscape="http://www.inkscape.org/namespaces/inkscape"
   width="70mm"
   height="72.460213mm"
   viewBox="0 0 69.999999 72.460213"
   version="1.1"
   id="svg8"
   inkscape:version="0.92.3 (2405546, 2018-03-11)"
   sodipodi:docname="jabref.svg">
  <defs
     id="defs2">
    <defs
       id="defs3017">
		<rect
   y="0"
   x="0"
   id="SVGID_1_"
   width="350.02399"
   height="350.02399" />

	</defs>
    <clipPath
       id="SVGID_2_">
		<use
   height="350.02399"
   width="350.02399"
   y="0"
   x="0"
   style="overflow:visible"
   xlink:href="#SVGID_1_"
   overflow="visible"
   id="use3021" />

	</clipPath>
    <rect
       y="0"
       x="0"
       id="rect917"
       width="350.02399"
       height="350.02399" />
  </defs>
  <sodipodi:namedview
     id="base"
     pagecolor="#ffffff"
     bordercolor="#666666"
     borderopacity="1.0"
     inkscape:pageopacity="0.0"
     inkscape:pageshadow="2"
     inkscape:zoom="0.7"
     inkscape:cx="-109.35786"
     inkscape:cy="-25.023175"
     inkscape:document-units="mm"
     inkscape:current-layer="layer1"
     showgrid="false"
     borderlayer="true"
     inkscape:showpageshadow="false"
     fit-margin-top="0"
     fit-margin-left="0"
     fit-margin-right="0"
     fit-margin-bottom="0"
     inkscape:window-width="1366"
     inkscape:window-height="732"
     inkscape:window-x="0"
     inkscape:window-y="0"
     inkscape:window-maximized="1" />
  <metadata
     id="metadata5">
    <rdf:RDF>
      <cc:Work
         rdf:about="">
        <dc:format>image/svg+xml</dc:format>
        <dc:type
           rdf:resource="http://purl.org/dc/dcmitype/StillImage" />
        <dc:title></dc:title>
      </cc:Work>
    </rdf:RDF>
  </metadata>
  <g
     inkscape:label="Layer 1"
     inkscape:groupmode="layer"
     id="layer1"
     transform="translate(119.80733,-204.64773)">
    <g
       transform="matrix(0.26458333,0,0,0.26458333,37.066472,340.42916)"
       id="g4308">
      <g
         id="g932"
         style="fill:#31496c;fill-opacity:1"
         transform="matrix(1.3493425,0,0,1.3493425,-592.90885,-515.93951)">
        <path
           transform="translate(-76.976,-71.492991)"
           clip-path="url(#SVGID_2_)"
           d="M 169.701,159.59 C 165.76,106.354 90.925,87.102 90.754,88.131 c -0.138,6.655 -0.277,13.309 -0.415,19.964 17.786,3.616 61.666,20.094 79.362,51.495"
           id="path3025"
           inkscape:connector-curvature="0"
           style="fill:#31496c;fill-opacity:1" />
        <path
           transform="translate(-76.976,-71.492991)"
           clip-path="url(#SVGID_2_)"
           d="M 168.724,133.743 C 165.32,91.685 107.608,72.901 107.501,73.547 c -0.041,3.517 -0.081,7.035 -0.121,10.553 18.138,7.541 47.675,24.698 61.344,49.643"
           id="path3027"
           inkscape:connector-curvature="0"
           style="fill:#31496c;fill-opacity:1" />
        <path
           transform="translate(-76.976,-71.492991)"
           clip-path="url(#SVGID_2_)"
           d="m 139.626,137.75 c -25.869,-17.587 -58.458,-22.145 -58.582,-21.399 -0.316,12.413 -0.631,24.826 -0.946,37.239 37.889,2.181 40.156,25.749 37.868,40.824 l -39.112,12.556 -1.878,69.523 68.665,-26.614 c 8.02,-3.279 16.04,-6.436 24.061,-9.326 v -47.922 c 0,-21.406 -10.904,-41.845 -30.076,-54.881"
           id="path3029"
           inkscape:connector-curvature="0"
           style="fill:#31496c;fill-opacity:1" />
        <path
           transform="translate(-76.976,-71.492991)"
           clip-path="url(#SVGID_2_)"
           d="m 180.322,159.59 c 3.941,-53.236 78.776,-72.488 78.947,-71.459 0.138,6.655 0.277,13.309 0.415,19.964 -17.786,3.616 -61.665,20.094 -79.362,51.495"
           id="path3031"
           inkscape:connector-curvature="0"
           style="fill:#31496c;fill-opacity:1" />
        <path
           transform="translate(-76.976,-71.492991)"
           clip-path="url(#SVGID_2_)"
           d="m 181.3,133.743 c 3.404,-42.058 61.116,-60.842 61.223,-60.196 0.041,3.517 0.081,7.035 0.121,10.553 -18.138,7.541 -47.675,24.698 -61.344,49.643"
           id="path3033"
           inkscape:connector-curvature="0"
           style="fill:#31496c;fill-opacity:1" />
        <path
           transform="translate(-76.976,-71.492991)"
           clip-path="url(#SVGID_2_)"
           d="m 210.397,137.75 c 25.869,-17.587 58.458,-22.145 58.582,-21.399 0.316,12.413 0.632,24.826 0.946,37.239 -37.889,2.181 -40.156,25.749 -37.868,40.824 l 39.112,12.556 1.878,69.523 -68.665,-26.614 c -8.02,-3.279 -16.04,-6.436 -24.061,-9.326 v -47.922 c 0.001,-21.406 10.905,-41.845 30.076,-54.881"
           id="path3035"
           inkscape:connector-curvature="0"
           style="fill:#31496c;fill-opacity:1" />
      </g>
    </g>
  </g>
  <style
     id="style815"
     type="text/css">
	.st0{fill:#323232;}
</style>
</svg>
