<?xml version="1.0" encoding="UTF-8" standalone="no"?>
<!-- Created with Inkscape (http://www.inkscape.org/) -->

<svg
   xmlns:sketch="http://www.bohemiancoding.com/sketch/ns"
   xmlns:dc="http://purl.org/dc/elements/1.1/"
   xmlns:cc="http://creativecommons.org/ns#"
   xmlns:rdf="http://www.w3.org/1999/02/22-rdf-syntax-ns#"
   xmlns:svg="http://www.w3.org/2000/svg"
   xmlns="http://www.w3.org/2000/svg"
   xmlns:sodipodi="http://sodipodi.sourceforge.net/DTD/sodipodi-0.dtd"
   xmlns:inkscape="http://www.inkscape.org/namespaces/inkscape"
   width="100mm"
   height="55.499088mm"
   viewBox="0 0 100 55.499088"
   version="1.1"
   id="svg1517"
   inkscape:version="0.92.3 (2405546, 2018-03-11)"
   sodipodi:docname="mendeley.svg">
  <defs
     id="defs1511" />
  <sodipodi:namedview
     id="base"
     pagecolor="#ffffff"
     bordercolor="#666666"
     borderopacity="1.0"
     inkscape:pageopacity="0.0"
     inkscape:pageshadow="2"
     inkscape:zoom="0.35"
     inkscape:cx="-66.737903"
     inkscape:cy="273.45162"
     inkscape:document-units="mm"
     inkscape:current-layer="layer1"
     showgrid="false"
     fit-margin-top="0"
     fit-margin-left="0"
     fit-margin-right="0"
     fit-margin-bottom="0"
     inkscape:window-width="1366"
     inkscape:window-height="732"
     inkscape:window-x="0"
     inkscape:window-y="0"
     inkscape:window-maximized="1" />
  <metadata
     id="metadata1514">
    <rdf:RDF>
      <cc:Work
         rdf:about="">
        <dc:format>image/svg+xml</dc:format>
        <dc:type
           rdf:resource="http://purl.org/dc/dcmitype/StillImage" />
        <dc:title></dc:title>
      </cc:Work>
    </rdf:RDF>
  </metadata>
  <g
     inkscape:label="Layer 1"
     inkscape:groupmode="layer"
     id="layer1"
     transform="translate(12.202382,-165.68498)">
    <g
       sketch:type="MSPage"
       id="Page-1"
       transform="matrix(0.04000267,0,0,0.04000267,-12.201538,165.67366)">
      <g
         sketch:type="MSArtboardGroup"
         id="Black">
        <path
           d="m 1250.3,399.1 c 0.4,0 0.7,0.1 1,0.1 0.3,0 0.6,-0.1 1,-0.1 135.4,0 245.2,109.7 245.2,245.3 0,75.8 -34.5,143.6 -88.6,188.6 -23.6,22.3 -53.1,38.7 -89.1,47 -21.4,6.2 -44.2,9.6 -67.5,9.6 h -1 -1 c -23.4,0 -46.1,-3.4 -67.6,-9.6 -36,-8.3 -65.6,-24.7 -89.1,-47 -54.1,-45 -88.6,-112.7 -88.6,-188.6 0,-135.6 109.9,-245.3 245.3,-245.3 M 211.5,1385.8 c 131.8,16.6 248.8,-79.4 261.2,-214.2 4.1,-45.5 -4.4,-89.7 -22.2,-128.8 -184.6,-405.1 726.2,-414.4 572.3,-32 -0.3,0.5 -0.7,0.9 -1.1,1.6 -72.8,116.3 -33.4,267.6 87.7,337.5 44.5,25.7 93.7,36.5 141.9,34.5 48.2,2 97.5,-8.8 141.9,-34.5 121,-70 160.4,-221.2 87.6,-337.5 -0.3,-0.7 -0.8,-1.1 -1.1,-1.6 -153.8,-382.4 757.1,-373.2 572.3,32 -17.8,39.1 -26.3,83.3 -22.2,128.8 12.5,134.9 129.4,230.8 261.2,214.2 58.6,-7.4 110.3,-35.7 148.5,-76.8 0,0 61.3,-50.8 60.3,-180.6 -0.9,-105.7 -60.3,-164.3 -60.3,-164.3 -47.9,-48.4 -116,-75 -189,-67.2 -169.1,-3.8 -194.2,-136.1 -146.4,-385.8 17.5,-44.2 25.1,-91.7 23.6,-139.1 4.7,-127.6 -59.5,-253.5 -177.7,-321.9 -14.4,-8.3 -29.2,-15.1 -44.3,-21.3 -4,-1.8 -8.2,-3.2 -12.3,-4.9 -4.7,-1.7 -9.2,-3.5 -13.9,-4.8 -36.8,-12.4 -76.1,-19.2 -117,-18.7 -127.2,1.2 -238,69.2 -300.1,170.1 -85.2,93.4 -123.6,150.1 -211.2,150.1 -83.2,0 -126.1,-56.8 -211.3,-150.1 C 978,69.5 867.2,1.5 740,0.3 699,-0.1 659.8,6.6 623.1,19 c -4.7,1.4 -9.4,3.2 -13.9,4.8 -4.2,1.6 -8.2,3.1 -12.4,4.9 -15,6.2 -29.9,13 -44.2,21.3 -118.3,68.5 -182.4,194.4 -177.8,322 -1.6,47.4 6.1,94.9 23.6,139.1 47.7,249.7 22.6,382 -146.4,385.8 -82.7,-8.9 -144.5,25.2 -207,87.7 -62.6,62.5 -57.4,229.8 0,302.8 41.6,53.1 98.1,89.8 166.5,98.4"
           class="st0"
           sketch:type="MSShapeGroup"
           id="Fill-17-Copy-4"
           inkscape:connector-curvature="0"
           style="fill:#31496c;fill-opacity:1" />
      </g>
    </g>
  </g>
</svg>
