<?xml version="1.0" encoding="UTF-8" standalone="no"?>
<!-- Created with Inkscape (http://www.inkscape.org/) -->

<svg
   xmlns:dc="http://purl.org/dc/elements/1.1/"
   xmlns:cc="http://creativecommons.org/ns#"
   xmlns:rdf="http://www.w3.org/1999/02/22-rdf-syntax-ns#"
   xmlns:svg="http://www.w3.org/2000/svg"
   xmlns="http://www.w3.org/2000/svg"
   xmlns:sodipodi="http://sodipodi.sourceforge.net/DTD/sodipodi-0.dtd"
   xmlns:inkscape="http://www.inkscape.org/namespaces/inkscape"
   width="216.00945mm"
   height="109.75999mm"
   viewBox="0 0 216.00945 109.75999"
   version="1.1"
   id="svg4518"
   inkscape:version="0.92.3 (2405546, 2018-03-11)"
   sodipodi:docname="wordmark.svg"
   inkscape:export-filename="/mnt/8bc1e72b-f81a-40bb-bc0e-c13a89803567/Repository/Dropbox/My Root Beer/BPP/IJBiotech/design/logo/wordmark.png"
   inkscape:export-xdpi="72"
   inkscape:export-ydpi="72">
  <defs
     id="defs4512">
    <clipPath
       id="clipPath18530-1-8-0-5-3-3"
       clipPathUnits="userSpaceOnUse">
      <path
         inkscape:connector-curvature="0"
         id="path18528-5-9-2-69-6-6"
         d="M 0,800 H 800 V 0 H 0 Z" />
    </clipPath>
  </defs>
  <sodipodi:namedview
     id="base"
     pagecolor="#ffffff"
     bordercolor="#666666"
     borderopacity="1.0"
     inkscape:pageopacity="0.0"
     inkscape:pageshadow="2"
     inkscape:zoom="0.7"
     inkscape:cx="72.456755"
     inkscape:cy="143.64019"
     inkscape:document-units="mm"
     inkscape:current-layer="layer1"
     showgrid="false"
     fit-margin-top="0"
     fit-margin-left="0"
     fit-margin-right="0"
     fit-margin-bottom="0"
     inkscape:window-width="1366"
     inkscape:window-height="702"
     inkscape:window-x="0"
     inkscape:window-y="0"
     inkscape:window-maximized="1" />
  <metadata
     id="metadata4515">
    <rdf:RDF>
      <cc:Work
         rdf:about="">
        <dc:format>image/svg+xml</dc:format>
        <dc:type
           rdf:resource="http://purl.org/dc/dcmitype/StillImage" />
        <dc:title></dc:title>
      </cc:Work>
    </rdf:RDF>
  </metadata>
  <g
     inkscape:label="Layer 1"
     inkscape:groupmode="layer"
     id="layer1"
     transform="translate(296.99283,-87.149768)">
    <text
       id="text112745-5-2"
       y="190.97632"
       x="-237.55431"
       style="font-style:normal;font-variant:normal;font-weight:normal;font-stretch:normal;font-size:56.90837097px;line-height:1.25;font-family:'Source Sans Pro';-inkscape-font-specification:'Source Sans Pro';letter-spacing:0px;word-spacing:0px;fill:#31496f;fill-opacity:1;stroke:none;stroke-width:0.34420389"
       xml:space="preserve"><tspan
         style="font-style:normal;font-variant:normal;font-weight:bold;font-stretch:normal;font-family:Lato;-inkscape-font-specification:'Lato Bold';fill:#31496f;fill-opacity:1;stroke-width:0.34420389"
         y="190.97632"
         x="-237.55431"
         id="tspan112743-1-0"
         sodipodi:role="line">iotech</tspan></text>
    <g
       transform="matrix(0.3148761,0,0,0.3148761,-1428.5111,-22.221846)"
       id="g112969">
      <g
         id="g113054">
        <g
           id="g112737"
           transform="matrix(0.83945938,0.03707312,-0.03707312,0.83945938,2189.8769,-363.16187)">
          <g
             id="g112741"
             transform="matrix(0.89932758,-0.10090546,0.10090546,0.89932758,0.08727029,120.54696)">
            <path
               style="opacity:1;fill:#3cb467;fill-opacity:1;stroke:none;stroke-width:3.99123764;stroke-linecap:butt;stroke-linejoin:round;stroke-miterlimit:4;stroke-dasharray:none;stroke-dashoffset:13.79527569;stroke-opacity:1;paint-order:markers fill stroke"
               d="m 1986.7236,935.99281 c -32.8391,31.1553 -33.6621,43.9295 -33.6621,57.4121 0,12.62319 9.5807,23.00839 21.8674,24.28099 0,0 -4.1112,-21.68929 3.4981,-49.81429 -2.2193,30.1731 4.2991,49.37039 4.2991,49.37039 1.6599,-0.3703 3.2508,-0.9122 4.7572,-1.6048 -0.029,-0.5706 -0.043,-1.1449 -0.043,-1.7226 0.7088,-14.19256 5.8037,-22.26689 13.7011,-27.43739 -3.1458,-14.1667 -15.0925,-31.0371 -14.4179,-50.4844 z"
               id="circle112701"
               inkscape:connector-curvature="0"
               sodipodi:nodetypes="cscccccccc" />
            <path
               style="opacity:1;fill:#3cb467;fill-opacity:1;stroke:none;stroke-width:5.16633797;stroke-linecap:butt;stroke-linejoin:round;stroke-miterlimit:4;stroke-dasharray:none;stroke-dashoffset:13.79527569;stroke-opacity:1;paint-order:markers fill stroke"
               d="m 2022.0365,1045.7891 c -10.5073,0 -19.8169,-5.1284 -25.5623,-13.0186 0.1049,0.044 29.4807,-8.82 49.3944,-32.1418 -30.8819,20.1504 -53.48,24.5193 -53.48,24.5193 -1.2625,-3.4141 -1.952,-7.1059 -1.952,-10.9588 2.1779,-43.60989 48.5684,-25.54504 87.0231,-51.88893 -4.3916,30.48483 -16.9304,81.75963 -55.4232,83.48883 z"
               id="path112699"
               inkscape:connector-curvature="0"
               sodipodi:nodetypes="ccccccc" />
          </g>
        </g>
        <g
           id="g112484"
           transform="rotate(-163.35466,3470.6865,760.24374)">
          <path
             style="opacity:1;fill:#31496f;fill-opacity:1;stroke:none;stroke-width:7.36439848;stroke-linecap:butt;stroke-linejoin:round;stroke-miterlimit:4;stroke-dasharray:none;stroke-dashoffset:13.79527569;stroke-opacity:1;paint-order:markers fill stroke"
             d="m 8374.4355,5461.9746 c -1.292,0.1134 -2.4533,0.819 -3.0371,1.9902 l -3.3711,6.7637 c -0.934,1.874 -0.026,4.2131 2.0352,5.2403 l 1.3535,0.6738 -21.918,43.9746 -5.0742,-2.5293 c -1.8742,-0.9343 -4.1343,-0.1768 -5.0683,1.6973 l -64.0664,128.541 c -0.934,1.8739 -0.177,4.1341 1.6972,5.0683 l 4.0352,2.0098 -6.7461,13.5332 c -0.9338,1.8738 -0.177,4.1341 1.6973,5.0684 l 3.3828,1.6855 -1.6856,3.3828 -0.8769,1.7578 -0.8086,1.6231 c -0.934,1.874 -0.177,4.134 1.6972,5.0683 l 10.1485,5.0586 c 1.8743,0.9343 4.1344,0.1786 5.0683,-1.6953 l 0.8086,-1.625 0.877,-1.7578 1.6855,-3.3828 3.3828,1.6855 c 1.8743,0.9343 4.1345,0.1767 5.0684,-1.6972 l 6.7441,-13.5313 2.7305,1.3614 c 1.8743,0.9342 4.1364,0.1786 5.0703,-1.6954 l 10.959,-21.9882 10.1465,5.0566 c 1.8743,0.9342 4.1344,0.1768 5.0684,-1.6973 l 7.9746,-16 a 26.456693,26.456693 0 0 0 19.0195,-3.1523 71.811022,71.811022 0 0 1 30.3769,81.1562 71.811022,71.811022 0 0 1 -89.371,48.2305 71.811022,71.811022 0 0 1 -32.8047,-20.9258 h 24.0488 c 2.0939,0 3.7793,-1.6854 3.7793,-3.7793 v -7.5586 c 0,-2.0938 -1.6854,-3.7793 -3.7793,-3.7793 h -83.1504 c -2.0939,0 -3.7793,1.6855 -3.7793,3.7793 v 7.5586 c 0,2.0939 1.6854,3.7793 3.7793,3.7793 h 22.459 a 102.04725,102.04725 0 0 0 60.7851,49.8965 102.04725,102.04725 0 0 0 127.002,-68.541 102.04725,102.04725 0 0 0 -46.9121,-117.5605 26.456693,26.456693 0 0 0 -8.627,-14.8985 l 7.9766,-16.0039 c 0.934,-1.874 0.177,-4.1361 -1.6973,-5.0703 l -10.1465,-5.0586 10.959,-21.9863 c 0.9339,-1.874 0.1741,-4.1349 -1.6992,-5.0684 l -5.0723,-2.5293 21.9161,-43.9726 1.3535,0.6738 c 2.0619,1.0281 4.4743,0.3446 5.4082,-1.5293 l 3.3711,-6.7656 c 0.934,-1.8741 0.027,-4.2084 -2.0352,-5.2364 l -29.7676,-14.8359 c -0.7729,-0.3852 -1.5958,-0.5309 -2.3711,-0.4629 z"
             transform="matrix(-0.80506678,0.24069469,-0.24069469,-0.80506678,11382.098,3544.5222)"
             id="path112432"
             inkscape:connector-curvature="0" />
          <g
             transform="translate(-3.7661133,71.199259)"
             id="g112457"
             style="fill:#fcfcfc;fill-opacity:1">
            <circle
               r="11.115483"
               cy="969.03516"
               cx="3306.1438"
               id="circle112449"
               style="opacity:1;fill:#fcfcfc;fill-opacity:1;stroke:none;stroke-width:0.80216622;stroke-linecap:butt;stroke-linejoin:round;stroke-miterlimit:4;stroke-dasharray:none;stroke-dashoffset:13.79527569;stroke-opacity:1;paint-order:markers fill stroke" />
            <g
               id="g112638"
               inkscape:transform-center-x="4.623878"
               inkscape:transform-center-y="-8.5437816"
               transform="rotate(26.491964,3282.2684,911.71252)"
               style="fill:#fcfcfc;fill-opacity:1" />
          </g>
        </g>
      </g>
    </g>
  </g>
</svg>
